<svg id="visual" viewBox="0 0 1980 1080" width="1980" height="1080" xmlns="http://www.w3.org/2000/svg" xmlns:xlink="http://www.w3.org/1999/xlink" version="1.1"><rect x="0" y="0" width="1980" height="1080" fill="#001220"></rect><path d="M0 415L36.7 393.7C73.3 372.3 146.7 329.7 220 319.2C293.3 308.7 366.7 330.3 440 334.5C513.3 338.7 586.7 325.3 660 330.5C733.3 335.7 806.7 359.3 880 363C953.3 366.7 1026.7 350.3 1100 332.8C1173.3 315.3 1246.7 296.7 1320 303.2C1393.3 309.7 1466.7 341.3 1540 343.5C1613.3 345.7 1686.7 318.3 1760 322.2C1833.3 326 1906.7 361 1943.3 378.5L1980 396L1980 0L1943.3 0C1906.7 0 1833.3 0 1760 0C1686.7 0 1613.3 0 1540 0C1466.7 0 1393.3 0 1320 0C1246.7 0 1173.3 0 1100 0C1026.7 0 953.3 0 880 0C806.7 0 733.3 0 660 0C586.7 0 513.3 0 440 0C366.7 0 293.3 0 220 0C146.7 0 73.3 0 36.7 0L0 0Z" fill="#fa7268"></path><path d="M0 322L36.7 310.7C73.3 299.3 146.7 276.7 220 267.8C293.3 259 366.7 264 440 261.5C513.3 259 586.7 249 660 241.5C733.3 234 806.7 229 880 234.2C953.3 239.3 1026.7 254.7 1100 266.7C1173.3 278.7 1246.7 287.3 1320 289C1393.3 290.7 1466.7 285.3 1540 292.2C1613.3 299 1686.7 318 1760 316.7C1833.3 315.3 1906.7 293.7 1943.3 282.8L1980 272L1980 0L1943.3 0C1906.7 0 1833.3 0 1760 0C1686.7 0 1613.3 0 1540 0C1466.7 0 1393.3 0 1320 0C1246.7 0 1173.3 0 1100 0C1026.7 0 953.3 0 880 0C806.7 0 733.3 0 660 0C586.7 0 513.3 0 440 0C366.7 0 293.3 0 220 0C146.7 0 73.3 0 36.7 0L0 0Z" fill="#f16367"></path><path d="M0 171L36.7 174.3C73.3 177.7 146.7 184.3 220 204.2C293.3 224 366.7 257 440 259C513.3 261 586.7 232 660 226C733.3 220 806.7 237 880 253.2C953.3 269.3 1026.7 284.7 1100 278C1173.3 271.3 1246.7 242.7 1320 228.2C1393.3 213.7 1466.7 213.3 1540 222.5C1613.3 231.7 1686.7 250.3 1760 254.3C1833.3 258.3 1906.7 247.7 1943.3 242.3L1980 237L1980 0L1943.3 0C1906.7 0 1833.3 0 1760 0C1686.7 0 1613.3 0 1540 0C1466.7 0 1393.3 0 1320 0C1246.7 0 1173.3 0 1100 0C1026.7 0 953.3 0 880 0C806.7 0 733.3 0 660 0C586.7 0 513.3 0 440 0C366.7 0 293.3 0 220 0C146.7 0 73.3 0 36.7 0L0 0Z" fill="#e85467"></path><path d="M0 131L36.7 146.8C73.3 162.7 146.7 194.3 220 204.5C293.3 214.7 366.7 203.3 440 196C513.3 188.7 586.7 185.3 660 176.7C733.3 168 806.7 154 880 161.7C953.3 169.3 1026.7 198.7 1100 198.3C1173.3 198 1246.7 168 1320 158.8C1393.3 149.7 1466.7 161.3 1540 162C1613.3 162.7 1686.7 152.3 1760 149C1833.3 145.7 1906.7 149.3 1943.3 151.2L1980 153L1980 0L1943.3 0C1906.7 0 1833.3 0 1760 0C1686.7 0 1613.3 0 1540 0C1466.7 0 1393.3 0 1320 0C1246.7 0 1173.3 0 1100 0C1026.7 0 953.3 0 880 0C806.7 0 733.3 0 660 0C586.7 0 513.3 0 440 0C366.7 0 293.3 0 220 0C146.7 0 73.3 0 36.7 0L0 0Z" fill="#de4467"></path><path d="M0 119L36.7 113C73.3 107 146.7 95 220 95.7C293.3 96.3 366.7 109.7 440 110.7C513.3 111.7 586.7 100.3 660 99.2C733.3 98 806.7 107 880 117.3C953.3 127.7 1026.7 139.3 1100 147.2C1173.3 155 1246.7 159 1320 148.7C1393.3 138.3 1466.7 113.7 1540 100.2C1613.3 86.7 1686.7 84.3 1760 95.2C1833.3 106 1906.7 130 1943.3 142L1980 154L1980 0L1943.3 0C1906.7 0 1833.3 0 1760 0C1686.7 0 1613.3 0 1540 0C1466.7 0 1393.3 0 1320 0C1246.7 0 1173.3 0 1100 0C1026.7 0 953.3 0 880 0C806.7 0 733.3 0 660 0C586.7 0 513.3 0 440 0C366.7 0 293.3 0 220 0C146.7 0 73.3 0 36.7 0L0 0Z" fill="#d23467"></path><path d="M0 106L36.7 95.3C73.3 84.7 146.7 63.3 220 52.8C293.3 42.3 366.7 42.7 440 49.5C513.3 56.3 586.7 69.7 660 79C733.3 88.3 806.7 93.7 880 92.5C953.3 91.3 1026.7 83.7 1100 76.2C1173.3 68.7 1246.7 61.3 1320 59C1393.3 56.7 1466.7 59.3 1540 66.5C1613.3 73.7 1686.7 85.3 1760 89.5C1833.3 93.7 1906.7 90.3 1943.3 88.7L1980 87L1980 0L1943.3 0C1906.7 0 1833.3 0 1760 0C1686.7 0 1613.3 0 1540 0C1466.7 0 1393.3 0 1320 0C1246.7 0 1173.3 0 1100 0C1026.7 0 953.3 0 880 0C806.7 0 733.3 0 660 0C586.7 0 513.3 0 440 0C366.7 0 293.3 0 220 0C146.7 0 73.3 0 36.7 0L0 0Z" fill="#c62368"></path></svg>